<?xml version="1.0" ?><svg xmlns="http://www.w3.org/2000/svg" width="16" height="16" viewBox="0 0 16 16" fill="none"><path fill-rule="evenodd" clip-rule="evenodd" d="M7.25 15.5C4.3505 15.5 2 13.1495 2 10.25V5.75C2 2.8505 4.35051 0.5 7.25 0.5H8.75C11.6495 0.5 14 2.85051 14 5.75V10.25C14 13.1495 11.6495 15.5 8.75 15.5H7.25ZM5 5.75C5 4.50736 6.00736 3.5 7.25 3.5H8.75C9.99264 3.5 11 4.50736 11 5.75V10.25C11 11.4926 9.99264 12.5 8.75 12.5H7.25C6.00736 12.5 5 11.4926 5 10.25L5 5.75Z" fill="black"/></svg>